<svg xmlns="http://www.w3.org/2000/svg" fill="none" viewBox="0 0 800 418"><style>@media (prefers-color-scheme:dark){path{fill:#FBFBFB}}</style><path fill="#353535" d="M148.22 221.5H136.1v-47.03h-15.5v-10.08h43.12v10.08h-15.51v47.03Zm35.27-60.78v12.38c0 2.16-.08 4.22-.23 6.17-.13 1.96-.24 3.34-.31 4.14h.62a12.99 12.99 0 0 1 3.32-3.67c1.3-.94 2.74-1.63 4.3-2.07a18.4 18.4 0 0 1 5.04-.66c3.15 0 5.9.56 8.24 1.68a11.86 11.86 0 0 1 5.47 5.2c1.3 2.34 1.95 5.38 1.95 9.13v28.48h-11.91V196c0-3.13-.58-5.49-1.72-7.08-1.15-1.59-2.92-2.38-5.31-2.38-2.4 0-4.29.56-5.67 1.68a8.9 8.9 0 0 0-2.93 4.88 30.73 30.73 0 0 0-.86 7.85v20.55h-11.91v-60.78h11.91ZM242.16 177c4.04 0 7.52.78 10.43 2.34a16.02 16.02 0 0 1 6.76 6.72c1.59 2.94 2.38 6.54 2.38 10.78v5.78h-28.16c.13 3.36 1.13 6 3 7.93 1.9 1.9 4.54 2.85 7.9 2.85 2.78 0 5.34-.28 7.66-.85a39 39 0 0 0 7.14-2.58v9.22a28.38 28.38 0 0 1-6.8 2.34c-2.34.5-5.19.74-8.55.74-4.37 0-8.25-.8-11.64-2.42-3.36-1.62-6-4.08-7.93-7.38-1.9-3.31-2.85-7.48-2.85-12.5 0-5.1.86-9.35 2.58-12.74a17.55 17.55 0 0 1 7.26-7.65c3.1-1.72 6.7-2.58 10.82-2.58Zm.08 8.47a8 8 0 0 0-5.78 2.23c-1.5 1.48-2.38 3.82-2.62 7h16.72a11.77 11.77 0 0 0-.97-4.73 7.34 7.34 0 0 0-2.74-3.28 8.1 8.1 0 0 0-4.6-1.22Zm83.8 36.02h-32.9v-57.1h32.9v9.91h-20.79v12.54h19.34v9.92h-19.34v14.73h20.78v10Zm35.81-44.5c4.66 0 8.41 1.28 11.25 3.84 2.84 2.52 4.26 6.58 4.26 12.18v28.48h-11.92V196c0-3.13-.57-5.49-1.71-7.08-1.12-1.59-2.9-2.38-5.32-2.38-3.64 0-6.13 1.24-7.46 3.71-1.32 2.47-1.99 6.04-1.99 10.7v20.55h-11.91v-43.67h9.1l1.6 5.58h.66c.94-1.5 2.1-2.73 3.48-3.67a15.3 15.3 0 0 1 4.65-2.07 21.2 21.2 0 0 1 5.31-.66Zm41.6 45.28a14.6 14.6 0 0 1-11.91-5.7c-3.05-3.83-4.57-9.44-4.57-16.84 0-7.47 1.55-13.12 4.65-16.95a14.85 14.85 0 0 1 12.15-5.78c2.08 0 3.92.28 5.5.86 1.6.57 2.96 1.34 4.1 2.3a15.1 15.1 0 0 1 2.97 3.24h.4a41.6 41.6 0 0 1-.9-8.71v-13.98h11.95v60.78h-9.14l-2.3-5.66h-.51a14.7 14.7 0 0 1-2.86 3.28 12.9 12.9 0 0 1-4.02 2.3 16 16 0 0 1-5.5.86Zm4.18-9.5c3.26 0 5.55-.95 6.88-2.88 1.35-1.96 2.07-4.88 2.15-8.8v-1.28c0-4.24-.66-7.49-1.96-9.73-1.3-2.26-3.72-3.4-7.26-3.4a7 7 0 0 0-6.17 3.4c-1.49 2.27-2.23 5.54-2.23 9.8 0 4.28.74 7.5 2.23 9.66a7.32 7.32 0 0 0 6.36 3.24Zm72.58-48.39c7.37 0 12.75 1.59 16.13 4.77 3.39 3.15 5.08 7.5 5.08 13.04 0 2.5-.38 4.9-1.13 7.2-.76 2.26-2 4.27-3.71 6.04a17.61 17.61 0 0 1-6.8 4.22c-2.84 1.02-6.34 1.53-10.5 1.53h-5.2v20.31h-12.11v-57.1h18.24Zm-.62 9.92h-5.51v16.96h3.98c2.27 0 4.23-.3 5.9-.9a7.86 7.86 0 0 0 3.87-2.81 8.27 8.27 0 0 0 1.37-4.93c0-2.81-.79-4.9-2.35-6.25-1.56-1.38-3.98-2.07-7.26-2.07Zm71.36 25.28c0 3.64-.5 6.87-1.48 9.68a19.1 19.1 0 0 1-4.26 7.15 17.91 17.91 0 0 1-6.72 4.38c-2.6.99-5.54 1.48-8.83 1.48-3.07 0-5.9-.5-8.47-1.48a18.84 18.84 0 0 1-6.68-4.38 20.39 20.39 0 0 1-4.38-7.15 28.42 28.42 0 0 1-1.52-9.68c0-4.85.86-8.95 2.58-12.3a17.69 17.69 0 0 1 7.34-7.66c3.18-1.75 6.97-2.62 11.37-2.62 4.09 0 7.7.87 10.86 2.62a18.4 18.4 0 0 1 7.46 7.65c1.82 3.36 2.73 7.46 2.73 12.3Zm-30.2 0c0 2.86.32 5.27.95 7.22a8.55 8.55 0 0 0 2.92 4.42c1.33.99 3.06 1.48 5.2 1.48 2.11 0 3.81-.5 5.12-1.48a8.34 8.34 0 0 0 2.89-4.42c.62-1.95.94-4.36.94-7.22 0-2.9-.32-5.3-.94-7.2a8.12 8.12 0 0 0-2.9-4.33c-1.32-.96-3.05-1.44-5.19-1.44-3.15 0-5.44 1.08-6.87 3.24-1.4 2.16-2.11 5.4-2.11 9.73ZM578.8 177c4.04 0 7.52.78 10.43 2.34a16.01 16.01 0 0 1 6.76 6.72c1.6 2.94 2.38 6.54 2.38 10.78v5.78h-28.16c.13 3.36 1.13 6 3 7.93 1.91 1.9 4.54 2.85 7.9 2.85 2.79 0 5.34-.28 7.66-.85 2.31-.58 4.7-1.44 7.14-2.58v9.22a28.37 28.37 0 0 1-6.8 2.34c-2.34.5-5.19.74-8.55.74-4.37 0-8.25-.8-11.64-2.42-3.36-1.62-6-4.08-7.93-7.38-1.9-3.31-2.85-7.48-2.85-12.5 0-5.1.86-9.35 2.58-12.74a17.55 17.55 0 0 1 7.26-7.65A21.95 21.95 0 0 1 578.8 177Zm.08 8.47c-2.31 0-4.24.75-5.78 2.23-1.5 1.48-2.38 3.82-2.62 7h16.72a11.77 11.77 0 0 0-.97-4.73 7.34 7.34 0 0 0-2.74-3.28 8.09 8.09 0 0 0-4.6-1.22Zm80.47-8.47c4.95 0 8.69 1.27 11.21 3.83 2.56 2.52 3.83 6.58 3.83 12.18v28.48h-11.95V196c0-3.13-.54-5.49-1.6-7.08-1.07-1.59-2.73-2.38-4.97-2.38-3.15 0-5.39 1.13-6.71 3.4-1.33 2.24-2 5.45-2 9.65v21.91h-11.91V196c0-2.1-.23-3.84-.7-5.24a6.2 6.2 0 0 0-2.15-3.17 6.14 6.14 0 0 0-3.71-1.05c-2.22 0-3.96.56-5.24 1.68-1.25 1.1-2.15 2.72-2.7 4.88a33.67 33.67 0 0 0-.77 7.85v20.55h-11.92v-43.67h9.1l1.6 5.58h.67c.89-1.5 2-2.73 3.32-3.67a14.52 14.52 0 0 1 4.45-2.07 18.7 18.7 0 0 1 4.92-.66c3.2 0 5.92.52 8.13 1.56a11.07 11.07 0 0 1 5.16 4.84h1.05a11.42 11.42 0 0 1 5.5-4.88 18.76 18.76 0 0 1 7.4-1.52ZM251.2 265.17c-.05-.02-.07-.09-.07-.2 0-.1.02-.18.07-.23a31 31 0 0 0 1.14-2.65l1.32-3.64a331.17 331.17 0 0 1 2.85-8.2c.5-1.33.98-2.54 1.45-3.63.47-1.1.91-1.97 1.33-2.62.42-.68.8-1.07 1.13-1.17.34-.13.64.11.9.74.24.6.3 1.22.2 1.88-.1.62-.32 1.27-.63 1.95a19.1 19.1 0 0 1-1.05 2.03c-.4.68-.76 1.35-1.1 2.03-.34.68-.61 1.35-.82 2.03-.2.68-.26 1.34-.15 2a4.48 4.48 0 0 0 1.95-1.06c.6-.52 1.17-1.07 1.72-1.64.57-.6 1.16-1.15 1.75-1.64.6-.5 1.3-.82 2.08-.98a5.21 5.21 0 0 1 3.08.2 3.5 3.5 0 0 1 1.84 1.6c.41.73.6 1.6.58 2.62a8.17 8.17 0 0 1-.78 3.16 11.7 11.7 0 0 1-2.22 3.2 14.65 14.65 0 0 1-3.75 2.78 20.5 20.5 0 0 1-5.36 1.87c-2.05.44-4.4.6-7.03.47-.05-.05-.14-.2-.27-.43-.1-.23-.16-.39-.16-.47Zm3.48-2.19c-.03.1-.04.33-.04.67 0 .31.01.52.04.62 1.74.24 3.49.1 5.23-.39a14.19 14.19 0 0 0 4.73-2.38 12.14 12.14 0 0 0 3.28-3.98 9.08 9.08 0 0 0 .94-5.16.94.94 0 0 0-.24-.24c-.1-.1-.18-.16-.23-.19a6.04 6.04 0 0 0-2.7.23c-.93.3-1.87.72-2.8 1.3a17.4 17.4 0 0 0-2.74 1.98 26.33 26.33 0 0 0-4.3 5.08c-.52.89-.91 1.7-1.17 2.46Zm10.59 18.52c-.24-.37-.23-.94.04-1.72.23-.75.58-1.55 1.05-2.38a37.64 37.64 0 0 1 3.44-5.12l1.44-1.95 1.72-2.3 1.76-2.27a172.7 172.7 0 0 1 2.46-3.24c.2-.24.2-.6 0-1.1-.2-.5-.53-1.07-.98-1.72-.41-.67-.9-1.4-1.44-2.18-.52-.81-1-1.62-1.45-2.43a14.7 14.7 0 0 1-.97-2.46 4.13 4.13 0 0 1 0-2.26c.28-.21.6-.08.93.39.34.44.7 1.07 1.06 1.87.39.78.8 1.66 1.2 2.62.43.94.83 1.8 1.22 2.58.4.75.77 1.35 1.13 1.8.4.44.76.53 1.1.27.67-.5 1.34-1.12 1.99-1.88a40.9 40.9 0 0 0 1.87-2.42c.6-.83 1.16-1.64 1.68-2.42.55-.8 1.06-1.51 1.53-2.11.18-.23.35-.39.5-.47.19-.1.46-.09.82.04.3.1.24.56-.15 1.37-.4.8-1 1.85-1.84 3.12-.83 1.28-1.83 2.74-3 4.38a656.39 656.39 0 0 1-7.54 10.31 793.94 793.94 0 0 0-3.52 4.84c-1.1 1.51-2.02 2.83-2.77 3.95a19.5 19.5 0 0 0-1.53 2.5l-.3.7c-.14.24-.3.43-.52.59a.84.84 0 0 1-.2-.16c-.1-.08-.19-.17-.27-.27a1.2 1.2 0 0 1-.27-.28.67.67 0 0 1-.2-.19Zm48.2-15.43a3.65 3.65 0 0 1-.94-.78 15.03 15.03 0 0 1-1.84-2.9 7.38 7.38 0 0 1-.46-1.55c-.06-.5-.02-.9.11-1.21.16-.34.47-.55.94-.63l.12 1.4c.05.58.17 1.14.35 1.69a5 5 0 0 0 .78 1.48c.34.42.8.65 1.4.7 1.7.13 3.16-.14 4.38-.82a10.6 10.6 0 0 0 3.25-2.85 18.4 18.4 0 0 0 2.3-4.1 51.44 51.44 0 0 0 1.64-4.77c.5-1.61.94-3.17 1.33-4.68.39-1.51.8-2.83 1.2-3.95.27-.96.26-1.6-.03-1.91-.29-.34-.74-.48-1.37-.43-.62.05-1.36.23-2.22.55-.84.28-1.67.58-2.5.9-.84.28-1.62.5-2.35.66-.73.13-1.29.06-1.68-.2-.54-.36-.73-.71-.54-1.05.18-.37.6-.7 1.29-1.02.67-.34 1.54-.65 2.61-.94a77.1 77.1 0 0 1 7.27-1.52 88.9 88.9 0 0 1 3.63-.58 197.05 197.05 0 0 1 6.56-.83l2.39-.3c.8-.11 1.52-.19 2.14-.24.63-.08 1-.12 1.14-.12a112.3 112.3 0 0 1 4.02-.12c.7 0 1.32.02 1.84.04.52.03.78.05.78.08l.43 1.29c-.7.05-1.66.1-2.85.16a121.4 121.4 0 0 0-8.4.5 39.9 39.9 0 0 0-4.3.59c-1.33.23-2.5.55-3.51.94a4.56 4.56 0 0 0-2.15 1.36 32 32 0 0 0-.75 2.66 129 129 0 0 1-2.5 8.79 51.7 51.7 0 0 1-1.8 4.88 35.51 35.51 0 0 1-2.18 4.45c-.8 1.36-1.7 2.48-2.7 3.37a6.75 6.75 0 0 1-3.16 1.63 5.34 5.34 0 0 1-3.67-.62Zm37.77 0a4.45 4.45 0 0 1-2.65-2.73c-.24-.6-.42-1.23-.55-1.88-.13-.68-.25-1.35-.35-2.03-.24-.16-.65 0-1.25.47-.6.44-1.3 1-2.07 1.68-.78.68-1.63 1.38-2.54 2.1-.89.71-1.75 1.23-2.58 1.57-.83.34-1.6.4-2.3.2-.68-.21-1.22-.89-1.6-2.04-.14-.39-.1-.95.11-1.68.24-.75.57-1.57 1.02-2.46.44-.88.95-1.8 1.52-2.73.6-.96 1.17-1.85 1.72-2.66.57-.83 1.1-1.53 1.56-2.1a7 7 0 0 1 1.13-1.18c.6.29.86.73.78 1.33a5.24 5.24 0 0 1-.7 2c-.39.75-.9 1.55-1.56 2.41-.63.86-1.22 1.72-1.8 2.58a15.8 15.8 0 0 0-1.32 2.42 3.18 3.18 0 0 0-.28 2.07c.57.24 1.28.12 2.11-.35a16.7 16.7 0 0 0 2.74-2.03c.99-.86 1.99-1.83 3-2.93a134.26 134.26 0 0 0 5.24-5.94 15.2 15.2 0 0 1 1.48-1.56c.55.26.82.7.82 1.3 0 .56-.15 1.23-.47 1.98-.28.76-.65 1.58-1.1 2.46a27.2 27.2 0 0 0-1.08 2.58c-.32.86-.5 1.68-.55 2.46a2.8 2.8 0 0 0 .62 2.03l1.33 1.57h3.95c.18 0 .22.07.11.23a13.12 13.12 0 0 1-1.05 1.06c-.2.15-.33.23-.35.23a4 4 0 0 1-1.64.04c-.42-.08-.9-.24-1.45-.47Zm7.93 0a3.77 3.77 0 0 1-1.48-2.07 6.63 6.63 0 0 1-.08-2.7c.16-.99.43-2 .82-3.04a45.06 45.06 0 0 1 2.73-5.67 38.9 38.9 0 0 0 1.64-3.12c.32-.6.64-1.25.98-1.95l.94-1.96.58-1.17a146.69 146.69 0 0 1 .82-2c.19-.43.38-.85.6-1.24.22-.42.46-.72.7-.9.25-.18.5-.2.74-.08.26.13.5.52.74 1.17-.1.26-.37.78-.78 1.57l-1.4 2.8-1.85 3.64a190.95 190.95 0 0 0-3.67 8c-.54 1.28-1 2.46-1.36 3.52a13.65 13.65 0 0 0-.63 2.62c-.05.68.08 1.1.4 1.25.36.18.82.26 1.4.24.6-.06 1.2-.13 1.83-.24l1.84-.31c.6-.13 1.12-.18 1.56-.16.1.24.03.47-.23.7a4.4 4.4 0 0 1-1.1.6 14.56 14.56 0 0 1-4.88.7c-.41-.03-.7-.1-.86-.2Zm11.02 0a87.44 87.44 0 0 1 2.89-8.16 26.27 26.27 0 0 1 2.19-4.26c.6-.8 1-1.07 1.2-.78.21.28.19 1.01-.07 2.19a27.88 27.88 0 0 1-1.56 4.72 56.47 56.47 0 0 1-3.32 6.72c-.21.08-.46.1-.75.04a.73.73 0 0 1-.58-.47Zm6.83-18.79a2.14 2.14 0 0 1-.07-.7c0-.34.02-.55.07-.63.6-.2 1.06-.23 1.37-.07.31.15.5.39.59.7.07.28.06.6-.04.94-.08.33-.22.6-.43.78a.74.74 0 0 1-.74.07c-.26-.13-.51-.49-.75-1.09Zm4.89 18.32a3.17 3.17 0 0 1-1.06-2.3c-.05-1.02.1-2.17.43-3.44a25.57 25.57 0 0 1 3.99-7.97c.9-1.27 1.9-2.4 2.96-3.4a11.34 11.34 0 0 1 3.2-2.22 5.34 5.34 0 0 1 3.13-.51c1.02.13 1.94.71 2.78 1.76.52.65.83 1.31.93 1.99.1.65.1 1.33-.04 2.03a11.9 11.9 0 0 1-.62 2.1l-.86 2.16a21.9 21.9 0 0 0-.66 2.22 6.85 6.85 0 0 0-.08 2.3c.13 1 .57 1.58 1.33 1.77.75.18 1.65.13 2.7-.16a16 16 0 0 0 3.35-1.37 51.57 51.57 0 0 0 3.24-1.87 43.12 43.12 0 0 0 2.5-1.64l1.02-.7c.73-.16 1.13-.11 1.2.15.11.23-.03.6-.42 1.1-.37.46-.93 1-1.68 1.63a26.35 26.35 0 0 1-5.66 3.32c-1.1.47-2.17.8-3.2.98a8.7 8.7 0 0 1-2.98-.04 4.02 4.02 0 0 1-2.26-1.4 4.2 4.2 0 0 1-.67-.94 1.97 1.97 0 0 0-.66-.82c-.39.36-.86.84-1.4 1.44-.55.58-1.15 1.16-1.8 1.76a21.5 21.5 0 0 1-2.03 1.64c-.7.52-1.44.91-2.2 1.17a5.3 5.3 0 0 1-2.3.28 4 4 0 0 1-2.18-1.02Zm.43-1.33c.23.84.75 1.23 1.56 1.18a6.3 6.3 0 0 0 2.81-1.22 19.62 19.62 0 0 0 3.32-2.96 26.6 26.6 0 0 0 3.09-4.22c.9-1.57 1.6-3.2 2.07-4.93.5-1.71.62-3.4.39-5.07-.63-.5-1.4-.51-2.35-.04-.93.44-1.94 1.18-3 2.22a28.64 28.64 0 0 0-3.13 3.68 38.02 38.02 0 0 0-2.7 4.3 24.38 24.38 0 0 0-1.8 4.06 5.55 5.55 0 0 0-.26 3Zm40 1.8c-.08-.86-.02-1.7.2-2.54.23-.86.52-1.7.89-2.5.39-.83.8-1.65 1.21-2.46.44-.83.82-1.64 1.13-2.42.32-.8.54-1.59.67-2.34.13-.79.08-1.56-.16-2.31a3.17 3.17 0 0 0-2.26.16c-.84.34-1.72.86-2.66 1.56-.94.68-1.92 1.48-2.93 2.42-.99.91-1.97 1.85-2.93 2.81l-2.7 2.7a34.2 34.2 0 0 1-2.34 2.15c-.68.54-1.25.9-1.72 1.05-.47.13-.78-.04-.94-.5-.02-.03.12-.36.43-.98.34-.65.75-1.46 1.21-2.43l1.6-3.12a892.93 892.93 0 0 1 3.05-5.63c.4-.67.64-1.04.75-1.09.54.37.82.77.82 1.21.02.42-.04.86-.2 1.33-.15.44-.34.9-.55 1.37-.18.47-.2.94-.07 1.4l1.72-1.17c.75-.52 1.56-1.05 2.42-1.6a68 68 0 0 1 2.73-1.6c.96-.52 1.86-.92 2.7-1.21a7.3 7.3 0 0 1 2.22-.51c.68-.03 1.18.17 1.49.59.31.41.4 1.1.27 2.07-.1.93-.5 2.22-1.21 3.86l-.59 1.33a249.38 249.38 0 0 1-1.95 4.45l-.55 1.3a11.12 11.12 0 0 0-.23 1.48c-.05.31-.13.62-.24.94-.1.28-.23.5-.39.66-.15.16-.33.14-.54-.04-.21-.2-.33-.34-.35-.39Zm31.17 0a6.46 6.46 0 0 1-2.35-3.16 9.5 9.5 0 0 1-.39-4.07c.16-1.48.55-3.02 1.18-4.6a31.7 31.7 0 0 1 5.43-9.1 32.04 32.04 0 0 1 3.55-3.68 19.5 19.5 0 0 1 3.6-2.54c1.2-.65 2.29-1 3.28-1.05.46-.13.93-.12 1.4.04.5.15.94.4 1.33.74a4.12 4.12 0 0 1 1.48 2.46c.08.42.03.82-.15 1.21-.19.37-.52.64-1.02.82a.73.73 0 0 1-.39.08c-.15 0-.23-.03-.23-.08v-3.08c0-.06-.07-.1-.2-.16a1.24 1.24 0 0 0-.47-.16 2.9 2.9 0 0 0-.5-.12.98.98 0 0 0-.4 0 16.71 16.71 0 0 0-6.64 3.29 20.66 20.66 0 0 0-4.57 5.47 62.64 62.64 0 0 0-3.82 7.61 19.1 19.1 0 0 0-1.33 4.85c-.08 1.2.14 2.04.66 2.54.52.46 1.23.67 2.11.62a10.1 10.1 0 0 0 3.09-.78c1.17-.5 2.35-1.1 3.55-1.8a40.1 40.1 0 0 0 3.56-2.38 41.25 41.25 0 0 0 3-2.54 13.7 13.7 0 0 0 1.96-2.19c.46-.68.62-1.17.46-1.48a3.1 3.1 0 0 0-1.36.08 10 10 0 0 0-1.3.35l-1.32.43-2 .66-1.98.67c-.63.2-1.06.36-1.3.46a.97.97 0 0 1-.93-.07 1.8 1.8 0 0 1-.5-.75 1.6 1.6 0 0 1 0-.85.73.73 0 0 1 .54-.55c.42-.08 1.14-.3 2.19-.67 1.06-.39 2.26-.8 3.59-1.25 1.33-.47 2.7-.92 4.1-1.36a34.6 34.6 0 0 1 3.71-.98 5.56 5.56 0 0 1 2.43-.08c.57.13.69.55.35 1.25l-1.3 1.37-1.99 2a139.88 139.88 0 0 1-3.35 3.27l-.9.75-1.64 1.4c-.6.5-1.2 1-1.8 1.52l-1.4 1.14-1.3 1.1a27.53 27.53 0 0 1-3.75 2.65c-.7.39-1.4.7-2.1.94-.7.23-1.4.35-2.07.35-.66 0-1.25-.2-1.8-.59Zm23.94 0c-1.1-.44-1.78-1.1-2.07-2a5.34 5.34 0 0 1 .04-2.92c.29-1.1.78-2.21 1.49-3.36a21.1 21.1 0 0 1 4.92-5.63 5.08 5.08 0 0 1 2.26-1.13c1.62-.2 2.88-.09 3.8.35a3.49 3.49 0 0 1 1.9 1.84c.34.8.44 1.76.28 2.85-.16 1.07-.5 2.15-1.05 3.24a14.66 14.66 0 0 1-2.07 3.17 13.16 13.16 0 0 1-2.82 2.57 9.09 9.09 0 0 1-3.24 1.37 6.2 6.2 0 0 1-3.44-.35Zm-.43-2.23c.21.84.65 1.3 1.33 1.41a4.4 4.4 0 0 0 2.34-.5c.92-.45 1.87-1.08 2.86-1.88a21.99 21.99 0 0 0 4.72-5.59 5.2 5.2 0 0 0 .79-2.58c0-.73-.36-1.27-1.06-1.64-.68-.39-1.82-.47-3.44-.23-.36.34-.83.75-1.4 1.25a29.68 29.68 0 0 0-3.6 3.44 13.4 13.4 0 0 0-1.56 2.03c-.44.7-.77 1.42-.98 2.14a4.3 4.3 0 0 0 0 2.15Zm30.94 2.23a4.45 4.45 0 0 1-2.65-2.73c-.24-.6-.42-1.23-.55-1.88-.13-.68-.25-1.35-.35-2.03-.24-.16-.66 0-1.25.47-.6.44-1.3 1-2.07 1.68-.78.68-1.63 1.38-2.54 2.1-.89.71-1.75 1.23-2.58 1.57-.84.34-1.6.4-2.3.2-.68-.21-1.22-.89-1.6-2.04-.14-.39-.1-.95.11-1.68.23-.75.57-1.57 1.01-2.46.45-.88.96-1.8 1.53-2.73.6-.96 1.17-1.85 1.72-2.66a31.5 31.5 0 0 1 1.56-2.1c.5-.6.87-1 1.13-1.18.6.29.86.73.78 1.33a5.24 5.24 0 0 1-.7 2 17.3 17.3 0 0 1-1.56 2.41c-.63.86-1.23 1.72-1.8 2.58a15.9 15.9 0 0 0-1.33 2.42 3.18 3.18 0 0 0-.27 2.07c.57.24 1.28.12 2.1-.35.87-.5 1.78-1.17 2.74-2.03 1-.86 2-1.83 3.01-2.93a134.26 134.26 0 0 0 5.24-5.94 15.2 15.2 0 0 1 1.48-1.56c.55.26.82.7.82 1.3 0 .56-.16 1.23-.47 1.98a24.9 24.9 0 0 1-1.1 2.46c-.4.86-.77 1.72-1.09 2.58-.3.86-.49 1.68-.54 2.46a2.8 2.8 0 0 0 .62 2.03l1.33 1.57h3.95c.18 0 .22.07.11.23a12.1 12.1 0 0 1-1.05 1.06c-.21.15-.33.23-.35.23a4 4 0 0 1-1.64.04c-.42-.08-.9-.24-1.45-.47Zm.43 11.45a4.51 4.51 0 0 1-1.95-1.3 5.95 5.95 0 0 1-1.17-1.87 6.07 6.07 0 0 1-.51-2 5.82 5.82 0 0 1 .04-1.79c.07-.52.23-.92.47-1.2.2-.27.45-.33.74-.2-.03 2.26.25 3.97.82 5.11.55 1.18 1.27 1.9 2.19 2.2.88.3 1.9.24 3.04-.2a12.95 12.95 0 0 0 3.4-2.07 19.96 19.96 0 0 0 3.32-3.32 22.2 22.2 0 0 0 2.7-4.03 16.95 16.95 0 0 0 1.56-4.1c.31-1.38.3-2.63-.04-3.75-2.34 1.7-4.17 2.76-5.47 3.2-1.3.45-2.21.47-2.73.08-.5-.41-.65-1.14-.47-2.19.18-1.04.57-2.18 1.17-3.43s1.35-2.5 2.27-3.75a19.29 19.29 0 0 1 2.8-3.2 7 7 0 0 1 2.78-1.65c.91-.23 1.67.04 2.27.82.6.81.97 1.9 1.13 3.28a17.5 17.5 0 0 1-.12 4.53 30.4 30.4 0 0 1-1.25 5.24 35.94 35.94 0 0 1-2.15 5.31 30.1 30.1 0 0 1-2.96 4.85 18.67 18.67 0 0 1-3.56 3.7 10.59 10.59 0 0 1-4.02 2c-1.4.36-2.84.27-4.3-.27Zm7.97-19.38a2.6 2.6 0 0 0-.08.43v1.33c.03.2.05.35.08.43.83.2 1.7.01 2.58-.59a10.9 10.9 0 0 0 2.42-2.3c.75-.94 1.38-1.93 1.87-2.97.52-1.04.84-1.91.94-2.62.13-.7 0-1.1-.39-1.17-.39-.1-1.1.31-2.15 1.25a94.38 94.38 0 0 0-2.85 2.77c-.52.58-1.01 1.18-1.48 1.8-.45.6-.76 1.15-.94 1.64Zm11.87 7.46a.44.44 0 0 1-.03-.2c0-.1 0-.18.03-.23l.51-1.05.78-1.6a86.76 86.76 0 0 1 1.76-3.32c.24-.37.5-.81.82-1.33.34-.55.7-1.15 1.06-1.8l1.13-1.91c.39-.63.74-1.22 1.05-1.76.34-.55.62-1 .82-1.37a652.97 652.97 0 0 1 6.1-10.08 31.5 31.5 0 0 1 1.99-2.77 6.2 6.2 0 0 1 1.52-1.45c.42-.23.7-.07.86.47v1.25a66.59 66.59 0 0 1-1.72 2.58c-.3.5-.62.98-.93 1.45-.32.47-.55.83-.7 1.09l-1.14 1.76-1.76 2.73a144.46 144.46 0 0 0-3.83 6.3c-.54.95-.98 1.79-1.32 2.5-.32.67-.43 1.1-.36 1.28.63-.18 1.3-.5 2-.98.73-.5 1.46-1.01 2.18-1.56.73-.54 1.46-1.07 2.2-1.56.72-.52 1.4-.92 2.02-1.21.63.08 1.18.31 1.64.7.47.4.81.89 1.02 1.49-.03.23-.05.67-.08 1.32v3.99c.03.62.05 1.05.08 1.29.03.28.16.65.39 1.1l.74 1.28a95.13 95.13 0 0 1 1.06 1.6c-.52.18-1.02.2-1.49.04a3.6 3.6 0 0 1-1.25-.82 6.16 6.16 0 0 1-.86-1.29c-.2-.5-.34-.97-.39-1.44l-.11-1.3a345 345 0 0 1-.16-2.02 43.4 43.4 0 0 0-.12-2l-.04-1.29-.9-.46c-.15-.08-.42-.02-.82.2-.36.2-.79.49-1.28.85-.5.37-1.02.78-1.57 1.25l-1.56 1.33a103.1 103.1 0 0 0-1.84 1.68l-1.13 1.13c-.55.52-1.13 1.1-1.76 1.72l-1.72 1.72-1.09 1.17c-.36.08-.71.12-1.05.12-.32-.03-.56-.22-.75-.59Z"/></svg>