<svg xmlns="http://www.w3.org/2000/svg" fill="#FBFBFB" viewBox="0 0 500 500"><style>@media (prefers-color-scheme:dark){path{fill:#29292A}}</style><path d="M268.5 200.7c3-9.3 16.2-9.3 19.3 0l18.1 54.4a81.3 81.3 0 0 0 51.5 51.4l54.4 18.2c9.3 3 9.3 16.2 0 19.3l-54.5 18a81.3 81.3 0 0 0-51.4 51.5L287.8 468a10.2 10.2 0 0 1-19.3 0l-18.2-54.5a81.3 81.3 0 0 0-51.4-51.4L144.4 344a10.2 10.2 0 0 1 0-19.3l54.5-18.2a81.3 81.3 0 0 0 51.4-51.4l18.2-54.4ZM159.8 57.2a6.1 6.1 0 0 1 11.6 0l11 32.7a48.8 48.8 0 0 0 30.8 30.9l32.6 10.9a6.1 6.1 0 0 1 0 11.6L213.2 154a48.8 48.8 0 0 0-30.9 30.9l-10.9 32.7a6.1 6.1 0 0 1-11.6 0L149 185a48.8 48.8 0 0 0-30.8-30.9l-32.7-10.8a6.1 6.1 0 0 1 0-11.6l32.7-11A48.8 48.8 0 0 0 148.9 90l11-32.7Zm198.9-29.5a4 4 0 0 1 7.7 0l7.2 21.8a32.5 32.5 0 0 0 20.6 20.6l21.8 7.3a4 4 0 0 1 0 7.7l-21.8 7.2a32.5 32.5 0 0 0-20.6 20.6l-7.2 21.8a4 4 0 0 1-7.7 0l-7.3-21.8a32.5 32.5 0 0 0-20.6-20.6l-21.7-7.2a4 4 0 0 1 0-7.7l21.7-7.3a32.5 32.5 0 0 0 20.6-20.6l7.3-21.7Z"/></svg>