<svg xmlns="http://www.w3.org/2000/svg" fill="none" viewBox="0 0 800 418"><style>@media (prefers-color-scheme:dark){path{fill:#FBFBFB}}</style><path fill="#353535" d="M207.6 214h-40.7v-68.53h40.7v14.86h-22.18v10.78h20.53v14.86h-20.53v12.94h22.17V214Zm44.15-54.05c5.47 0 9.94 1.55 13.4 4.64 3.48 3.1 5.2 8.05 5.2 14.86V214h-18.32v-28.97c0-3.53-.51-6.19-1.55-7.97-1-1.81-2.62-2.72-4.87-2.72-3.47 0-5.8 1.43-6.99 4.27-1.18 2.81-1.78 6.86-1.78 12.14V214h-18.32v-53.1h13.82l2.49 7.02h.7a17.18 17.18 0 0 1 9.42-7.03c2.03-.62 4.3-.94 6.8-.94Zm47.58 54.99c-5.47 0-9.97-2.33-13.5-6.99-3.53-4.65-5.3-11.47-5.3-20.43 0-9.07 1.81-15.93 5.44-20.58 3.62-4.66 8.31-6.99 14.06-6.99 2.38 0 4.42.35 6.14 1.03 1.72.7 3.2 1.63 4.45 2.82a19.17 19.17 0 0 1 3.33 3.93h.38a87.92 87.92 0 0 1-.89-12.47v-14.2h18.47V214h-13.83l-3.94-6.7h-.7c-.85 1.4-1.9 2.68-3.19 3.84a13.96 13.96 0 0 1-4.6 2.77 17.54 17.54 0 0 1-6.32 1.03Zm7.5-14.49c2.94 0 5-.92 6.19-2.76 1.21-1.88 1.87-4.72 1.96-8.53v-1.46c0-4.18-.59-7.39-1.78-9.6-1.15-2.26-3.34-3.38-6.56-3.38-2.19 0-4 1.06-5.44 3.19-1.43 2.12-2.15 5.42-2.15 9.89 0 4.4.72 7.62 2.15 9.65 1.47 2 3.35 3 5.63 3Zm87.51-54.98c8.7 0 15.2 1.89 19.5 5.67 4.35 3.78 6.52 9.16 6.52 16.13 0 3.12-.45 6.12-1.36 9a20.06 20.06 0 0 1-4.36 7.68c-2 2.25-4.67 4.03-8.01 5.35-3.32 1.3-7.41 1.97-12.29 1.97h-5.2V214h-18.51v-68.53h23.71Zm-.42 14.95h-4.78v15.75h3.66c1.6 0 3.07-.26 4.45-.8a7.07 7.07 0 0 0 3.28-2.67c.85-1.25 1.27-2.9 1.27-4.97a7.3 7.3 0 0 0-1.93-5.25c-1.28-1.37-3.26-2.06-5.95-2.06Zm87 26.9c0 4.45-.6 8.38-1.83 11.82a23.16 23.16 0 0 1-5.3 8.67 22.7 22.7 0 0 1-8.38 5.35 32.48 32.48 0 0 1-11.11 1.78c-3.85 0-7.38-.6-10.6-1.78-3.18-1.22-5.97-3-8.34-5.35a24.03 24.03 0 0 1-5.53-8.67 33.7 33.7 0 0 1-1.92-11.81c0-5.88 1.06-10.85 3.18-14.9a21.93 21.93 0 0 1 9.2-9.29c4-2.12 8.76-3.19 14.29-3.19 5.1 0 9.62 1.07 13.6 3.2a22.8 22.8 0 0 1 9.32 9.27c2.28 4.06 3.42 9.03 3.42 14.9Zm-34.4 0c0 3.04.26 5.6.8 7.7a9.68 9.68 0 0 0 2.52 4.73 6.7 6.7 0 0 0 4.64 1.6c1.91 0 3.43-.54 4.55-1.6a9.59 9.59 0 0 0 2.44-4.73c.53-2.1.8-4.66.8-7.7 0-3.02-.27-5.55-.8-7.59-.5-2.03-1.33-3.56-2.49-4.59-1.12-1.03-2.65-1.55-4.59-1.55-2.78 0-4.8 1.16-6.05 3.47-1.21 2.31-1.82 5.74-1.82 10.27Zm68.8-27.37c5.16 0 9.62.9 13.37 2.72a19.18 19.18 0 0 1 8.67 8.06c2.03 3.6 3.05 8.1 3.05 13.5v8.16h-32.77a9.74 9.74 0 0 0 3.1 6.84c1.93 1.79 4.78 2.68 8.53 2.68 3.3 0 6.34-.33 9.09-.99a44.25 44.25 0 0 0 8.58-3.04v13.17a31.79 31.79 0 0 1-8.4 2.95c-3.02.63-6.85.94-11.48.94-5.34 0-10.12-.96-14.34-2.86a22.13 22.13 0 0 1-9.99-8.86c-2.4-4-3.6-9.14-3.6-15.42 0-6.38 1.09-11.61 3.28-15.7a20.78 20.78 0 0 1 9.18-9.15c3.94-2 8.52-3 13.74-3Zm.66 12.47c-2.15 0-3.96.69-5.43 2.06-1.44 1.35-2.28 3.47-2.53 6.38h15.75a10.54 10.54 0 0 0-.94-4.27 7.12 7.12 0 0 0-2.63-3.04 7.44 7.44 0 0 0-4.22-1.13Zm99.61-12.47c6.07 0 10.7 1.55 13.88 4.64 3.22 3.1 4.83 8.05 4.83 14.86V214h-18.33v-28.88c0-4.03-.55-6.82-1.64-8.39-1.06-1.59-2.66-2.39-4.78-2.39-2.97 0-5.03 1.3-6.2 3.9-1.12 2.59-1.68 6.26-1.68 11.01V214H583.3v-28.88c0-2.56-.24-4.62-.7-6.18a6.46 6.46 0 0 0-2.02-3.47 5.19 5.19 0 0 0-3.42-1.13c-2.1 0-3.74.64-4.93 1.93-1.15 1.25-1.96 3.09-2.43 5.53-.47 2.43-.7 5.42-.7 8.95V214h-18.33v-53.1h13.82l2.68 6.55h.51a15.54 15.54 0 0 1 3.61-3.84 17.92 17.92 0 0 1 5.3-2.67c2.06-.66 4.4-.99 7.03-.99 3.9 0 7.12.66 9.65 1.97a16.76 16.76 0 0 1 6.2 5.44h.55a16.82 16.82 0 0 1 6.52-5.49 20.35 20.35 0 0 1 8.95-1.92ZM221.34 263.4c-.06-.02-.09-.1-.09-.23 0-.12.03-.22.1-.28.4-.81.85-1.87 1.35-3.19l1.6-4.36a395.25 395.25 0 0 1 3.42-9.84c.6-1.6 1.17-3.05 1.73-4.36.57-1.31 1.1-2.36 1.6-3.14.5-.81.95-1.28 1.36-1.4.4-.16.76.13 1.07.88.29.72.36 1.47.24 2.25a9.24 9.24 0 0 1-.75 2.35c-.34.78-.77 1.6-1.27 2.44-.47.8-.9 1.62-1.3 2.43-.42.82-.74 1.63-1 2.44-.24.81-.3 1.61-.18 2.4a5.38 5.38 0 0 0 2.34-1.27 30.7 30.7 0 0 0 2.06-1.97c.7-.72 1.4-1.38 2.11-1.97.72-.6 1.55-.99 2.49-1.17 1.47-.28 2.7-.2 3.7.23 1 .4 1.74 1.05 2.2 1.92.5.88.74 1.92.7 3.14a9.82 9.82 0 0 1-.93 3.8c-.6 1.31-1.48 2.6-2.67 3.84a17.57 17.57 0 0 1-4.5 3.33 24.54 24.54 0 0 1-6.42 2.25c-2.47.53-5.28.72-8.44.56a3.04 3.04 0 0 1-.33-.51 1.83 1.83 0 0 1-.19-.56Zm4.18-2.62c-.04.13-.05.4-.05.8 0 .37.01.62.05.75 2.09.28 4.18.12 6.28-.47a17.03 17.03 0 0 0 5.67-2.86 14.55 14.55 0 0 0 3.94-4.78 10.9 10.9 0 0 0 1.12-6.19 1.13 1.13 0 0 0-.28-.28c-.13-.13-.22-.2-.28-.23a7.24 7.24 0 0 0-3.24.28c-1.12.34-2.25.86-3.37 1.54a20.87 20.87 0 0 0-3.28 2.4 31.77 31.77 0 0 0-2.86 2.95 25.9 25.9 0 0 0-2.3 3.14 16.55 16.55 0 0 0-1.4 2.95Zm12.7 22.22c-.28-.44-.27-1.13.05-2.06.28-.9.7-1.86 1.26-2.86a45.17 45.17 0 0 1 4.13-6.14l1.73-2.35 2.06-2.76 2.11-2.72c.66-.88 1.25-1.66 1.78-2.34.53-.7.93-1.2 1.18-1.55.25-.28.25-.72 0-1.31-.25-.6-.65-1.29-1.18-2.07-.5-.8-1.07-1.68-1.73-2.62-.63-.97-1.2-1.94-1.74-2.9-.5-1-.89-2-1.17-2.96a5.01 5.01 0 0 1 0-2.72c.35-.25.72-.1 1.13.47.4.53.83 1.28 1.26 2.25.47.94.96 1.98 1.46 3.14.5 1.13.98 2.16 1.45 3.1.47.9.92 1.62 1.36 2.15.47.53.9.64 1.31.33.81-.6 1.61-1.35 2.4-2.25a50.5 50.5 0 0 0 2.24-2.9c.72-1 1.4-1.98 2.02-2.91a46.2 46.2 0 0 1 1.83-2.54c.21-.28.42-.46.6-.56.22-.12.55-.1.99.05.34.12.28.67-.19 1.64-.47.97-1.2 2.22-2.2 3.75-1 1.53-2.2 3.28-3.61 5.25a796.43 796.43 0 0 1-9.05 12.38l-4.22 5.8a177.7 177.7 0 0 0-3.32 4.74 23.18 23.18 0 0 0-1.83 3l-.38.85a2.2 2.2 0 0 1-.6.7c-.07-.03-.15-.1-.24-.19-.13-.1-.24-.2-.33-.33-.12-.1-.23-.2-.33-.33a.8.8 0 0 1-.23-.23Zm57.84-18.52a4.38 4.38 0 0 1-1.12-.93c-.4-.47-.8-1-1.17-1.6-.38-.6-.72-1.22-1.04-1.87a8.89 8.89 0 0 1-.56-1.88c-.06-.6-.01-1.07.14-1.45.19-.4.56-.66 1.13-.75l.14 1.69c.06.69.2 1.36.42 2.01.22.66.53 1.25.94 1.78.4.5.97.79 1.69.85a9.19 9.19 0 0 0 5.25-.99c1.5-.84 2.8-1.98 3.89-3.42a21.42 21.42 0 0 0 2.76-4.92c.75-1.88 1.4-3.78 1.97-5.72.6-1.94 1.13-3.81 1.6-5.62a48.5 48.5 0 0 1 1.45-4.74c.3-1.15.3-1.92-.05-2.3-.34-.4-.9-.57-1.64-.51-.75.06-1.64.28-2.67.66-1 .34-2 .7-3 1.07-1 .35-1.94.61-2.81.8-.88.16-1.55.08-2.02-.23-.66-.44-.88-.86-.66-1.27.22-.44.74-.84 1.55-1.22a17 17 0 0 1 3.14-1.12 92.68 92.68 0 0 1 8.72-1.83c1.56-.28 3.01-.52 4.36-.7a244.05 244.05 0 0 1 7.87-.99l2.86-.37a58.9 58.9 0 0 1 2.58-.28c.75-.1 1.2-.15 1.36-.15a135 135 0 0 1 4.83-.14c.84 0 1.58.02 2.2.05.63.03.94.06.94.1l.51 1.54c-.84.06-1.98.13-3.42.19a144.1 144.1 0 0 0-10.07.6c-1.85.16-3.57.4-5.16.71-1.6.28-3 .66-4.22 1.13a5.5 5.5 0 0 0-2.58 1.64c-.25.72-.55 1.78-.89 3.18a152.55 152.55 0 0 1-3 10.55c-.62 2-1.34 3.95-2.15 5.86a42.38 42.38 0 0 1-2.63 5.34 17.14 17.14 0 0 1-3.23 4.04 8.1 8.1 0 0 1-3.8 1.96 6.4 6.4 0 0 1-4.4-.75Zm45.33 0a5.32 5.32 0 0 1-2.01-1.36c-.5-.56-.9-1.2-1.18-1.92-.28-.72-.5-1.47-.65-2.25-.16-.8-.3-1.62-.43-2.43-.28-.2-.78 0-1.5.56-.71.53-1.54 1.2-2.48 2.01-.94.82-1.95 1.66-3.05 2.54-1.06.84-2.09 1.46-3.09 1.87-1 .4-1.92.48-2.77.23-.8-.25-1.45-1.06-1.92-2.43-.15-.47-.1-1.14.14-2.02.28-.9.7-1.89 1.22-2.95a44.15 44.15 0 0 1 1.83-3.28c.72-1.16 1.4-2.22 2.06-3.2.69-1 1.31-1.83 1.88-2.52a8.36 8.36 0 0 1 1.36-1.4c.72.34 1.03.87.93 1.59a6.29 6.29 0 0 1-.84 2.39c-.47.9-1.1 1.87-1.87 2.9a94.3 94.3 0 0 0-2.16 3.1c-.66 1-1.19 1.97-1.6 2.9a3.8 3.8 0 0 0-.32 2.49c.69.28 1.53.14 2.53-.43 1.03-.59 2.12-1.4 3.28-2.43a47.1 47.1 0 0 0 3.6-3.52 159.94 159.94 0 0 0 6.3-7.12 18.6 18.6 0 0 1 1.77-1.88c.66.31.99.83.99 1.55 0 .69-.2 1.48-.57 2.39-.34.9-.78 1.89-1.3 2.95-.5 1.03-.95 2.06-1.32 3.1-.38 1.03-.6 2.01-.66 2.95-.06.94.19 1.75.75 2.44l1.6 1.87h4.73c.22 0 .27.1.14.28a14.58 14.58 0 0 1-1.26 1.27c-.25.19-.4.28-.43.28-.8.16-1.46.17-1.96.05-.5-.1-1.08-.28-1.74-.57Zm9.52 0a4.53 4.53 0 0 1-1.79-2.48c-.25-1-.28-2.08-.09-3.23.19-1.2.52-2.41.99-3.66a54.8 54.8 0 0 1 3.28-6.8 45.2 45.2 0 0 0 1.97-3.75l1.17-2.34 1.12-2.34.7-1.41a137.95 137.95 0 0 1 .98-2.4c.23-.52.46-1.02.71-1.5.28-.5.57-.85.85-1.07.3-.22.6-.25.89-.1.31.16.6.63.89 1.41a8620.26 8620.26 0 0 0-4.83 9.61c-.78 1.6-1.55 3.2-2.3 4.83-.75 1.63-1.45 3.22-2.1 4.78a60.55 60.55 0 0 0-1.65 4.22c-.4 1.25-.65 2.3-.75 3.14-.06.81.1 1.31.47 1.5.44.22 1 .31 1.69.28.72-.06 1.45-.15 2.2-.28l2.2-.37a7.01 7.01 0 0 1 1.88-.2c.13.29.03.57-.28.85-.31.25-.75.49-1.31.7a18.01 18.01 0 0 1-4.08.8c-.66.06-1.25.08-1.78.05-.5-.03-.85-.11-1.03-.24Zm13.21 0c1.29-4.12 2.44-7.39 3.47-9.8a31.35 31.35 0 0 1 2.63-5.1c.72-.97 1.2-1.28 1.45-.94.25.34.22 1.22-.1 2.63-.27 1.4-.9 3.3-1.87 5.67a67.66 67.66 0 0 1-3.98 8.06c-.25.1-.55.1-.9.05a.88.88 0 0 1-.7-.57Zm8.2-22.54a2.6 2.6 0 0 1-.09-.85c0-.4.04-.65.1-.75.72-.25 1.26-.28 1.64-.09.37.19.6.47.7.84a2 2 0 0 1-.05 1.13c-.09.4-.26.72-.51.94-.25.18-.55.22-.9.09-.3-.16-.6-.6-.88-1.31Zm5.87 21.98a3.8 3.8 0 0 1-1.27-2.76c-.06-1.22.11-2.6.52-4.13a28.98 28.98 0 0 1 1.87-4.78 33.58 33.58 0 0 1 2.9-4.78c1.1-1.53 2.29-2.9 3.57-4.08a13.6 13.6 0 0 1 3.85-2.67c1.28-.6 2.53-.8 3.75-.61 1.21.16 2.32.86 3.32 2.1.63.79 1 1.59 1.13 2.4.12.78.1 1.6-.05 2.44-.15.8-.4 1.65-.75 2.53-.34.84-.69 1.7-1.03 2.58-.31.87-.58 1.76-.8 2.67-.18.9-.22 1.83-.1 2.76.17 1.2.7 1.9 1.6 2.11.9.22 1.99.16 3.24-.18 1.28-.35 2.62-.9 4.03-1.64 1.4-.75 2.7-1.5 3.89-2.25 1.22-.75 2.22-1.41 3-1.97l1.22-.85c.87-.19 1.36-.12 1.45.19.13.28-.05.72-.51 1.31-.44.56-1.11 1.22-2.02 1.97a31.66 31.66 0 0 1-6.8 3.99c-1.3.56-2.6.95-3.84 1.17-1.25.19-2.44.17-3.56-.05-1.1-.25-2-.81-2.72-1.69-.35-.37-.61-.75-.8-1.12-.15-.38-.42-.7-.8-.99a31.2 31.2 0 0 0-1.68 1.74c-.66.69-1.38 1.39-2.16 2.1-.75.7-1.56 1.35-2.44 1.98a9.74 9.74 0 0 1-2.62 1.4c-.9.31-1.83.42-2.77.33a4.8 4.8 0 0 1-2.62-1.22Zm.51-1.6c.28 1 .9 1.48 1.88 1.41.97-.09 2.1-.57 3.37-1.45 1.28-.87 2.61-2.06 3.99-3.56a32 32 0 0 0 3.7-5.06 24.5 24.5 0 0 0 2.49-5.91c.59-2.06.75-4.1.46-6.1-.75-.59-1.68-.6-2.8-.04a13.85 13.85 0 0 0-3.62 2.67 34.42 34.42 0 0 0-3.75 4.4 45.38 45.38 0 0 0-3.23 5.16 29.15 29.15 0 0 0-2.16 4.88c-.47 1.53-.58 2.73-.33 3.6Zm48 2.16a9.07 9.07 0 0 1 .24-3.04c.28-1.03.64-2.03 1.08-3 .46-1 .95-1.99 1.45-2.96.53-1 .98-1.96 1.36-2.9.37-.97.64-1.9.8-2.81.15-.94.09-1.86-.2-2.77a3.8 3.8 0 0 0-2.71.19c-1 .4-2.06 1.03-3.19 1.87-1.12.81-2.3 1.78-3.51 2.9-1.2 1.1-2.36 2.23-3.52 3.38l-3.23 3.24a38.16 38.16 0 0 1-2.82 2.58 7.19 7.19 0 0 1-2.06 1.26c-.56.16-.94-.05-1.12-.6-.04-.04.14-.43.51-1.18.4-.78.9-1.75 1.45-2.9l1.93-3.76a1143.02 1143.02 0 0 1 3.65-6.75c.47-.8.77-1.25.9-1.3.65.43.98.91.98 1.44a4.2 4.2 0 0 1-.24 1.6c-.18.53-.4 1.08-.65 1.64a2.61 2.61 0 0 0-.1 1.69 375.44 375.44 0 0 1 4.97-3.33c1.06-.66 2.16-1.3 3.28-1.92 1.16-.63 2.24-1.11 3.24-1.46 1-.37 1.89-.57 2.67-.6.81-.04 1.4.2 1.78.7.38.5.49 1.33.33 2.48a17.82 17.82 0 0 1-1.45 4.64l-.7 1.6c-.35.8-.74 1.7-1.18 2.67-.4.94-.8 1.83-1.17 2.67l-.66 1.55a13.1 13.1 0 0 0-.28 1.78c-.06.37-.15.75-.28 1.12-.13.35-.28.61-.47.8-.19.19-.4.17-.65-.05-.25-.25-.4-.4-.43-.47Zm37.4 0a7.75 7.75 0 0 1-2.8-3.8c-.5-1.5-.66-3.12-.47-4.87a21.2 21.2 0 0 1 1.4-5.53 38 38 0 0 1 6.52-10.92 38.36 38.36 0 0 1 4.27-4.4c1.46-1.29 2.9-2.3 4.3-3.05a9.43 9.43 0 0 1 3.95-1.27 2.82 2.82 0 0 1 1.68.05c.6.19 1.13.48 1.6.89a4.91 4.91 0 0 1 1.78 2.95c.1.5.03.99-.19 1.45-.22.44-.62.77-1.22.99-.1.06-.25.1-.47.1-.18 0-.28-.04-.28-.1v-3.7c0-.07-.08-.13-.23-.2-.16-.09-.35-.15-.56-.18-.2-.06-.4-.1-.61-.14a1.18 1.18 0 0 0-.47 0c-3.1.78-5.75 2.1-7.97 3.94a24.74 24.74 0 0 0-5.49 6.56 75.18 75.18 0 0 0-4.59 9.14 22.9 22.9 0 0 0-1.6 5.81c-.09 1.44.18 2.46.8 3.05.63.56 1.47.81 2.53.75a12.1 12.1 0 0 0 3.7-.94c1.41-.6 2.84-1.31 4.27-2.15 1.47-.88 2.9-1.83 4.27-2.86a49.44 49.44 0 0 0 3.6-3.05 16.54 16.54 0 0 0 2.35-2.63c.56-.8.75-1.4.56-1.78a3.7 3.7 0 0 0-1.64.1c-.59.12-1.1.26-1.54.42-.28.1-.82.26-1.6.51l-2.39.8-2.39.8c-.75.25-1.26.44-1.55.56-.43.16-.8.13-1.12-.1a2.17 2.17 0 0 1-.6-.88c-.1-.38-.1-.72 0-1.03.08-.35.3-.57.65-.66.5-.1 1.37-.36 2.62-.8 1.28-.47 2.72-.97 4.31-1.5 1.6-.56 3.24-1.1 4.93-1.64 1.68-.53 3.17-.92 4.45-1.17a6.67 6.67 0 0 1 2.9-.1c.7.16.83.66.43 1.5-.28.32-.8.87-1.55 1.65l-2.39 2.39c-.84.84-1.66 1.64-2.44 2.39-.75.75-1.28 1.26-1.6 1.54l-1.07.9c-.56.5-1.22 1.06-1.97 1.68-.72.6-1.44 1.2-2.15 1.83-.72.6-1.29 1.05-1.7 1.36l-1.54 1.31a33.7 33.7 0 0 1-4.5 3.2c-.84.46-1.69.83-2.53 1.12-.84.28-1.67.42-2.48.42-.79 0-1.5-.24-2.16-.7Zm28.74 0c-1.3-.53-2.14-1.32-2.48-2.39a6.42 6.42 0 0 1 .05-3.51c.34-1.31.93-2.66 1.78-4.03.84-1.4 1.78-2.7 2.81-3.85a21.92 21.92 0 0 1 3.1-2.9 6.07 6.07 0 0 1 2.71-1.36c1.94-.25 3.46-.11 4.55.42 1.12.5 1.89 1.23 2.3 2.2.4.97.51 2.11.32 3.42-.18 1.29-.6 2.58-1.26 3.9a17.57 17.57 0 0 1-2.49 3.8c-1 1.21-2.12 2.24-3.37 3.09a10.9 10.9 0 0 1-3.9 1.64 7.51 7.51 0 0 1-4.12-.43Zm-.51-2.67c.25 1 .78 1.56 1.6 1.69.8.1 1.74-.1 2.8-.6 1.1-.54 2.24-1.3 3.43-2.26a26.36 26.36 0 0 0 5.67-6.7c.65-1.19.97-2.22.94-3.1 0-.87-.43-1.53-1.27-1.97-.81-.46-2.19-.56-4.13-.28-.43.41-1 .91-1.68 1.5-.69.57-1.4 1.2-2.16 1.88-.72.69-1.44 1.44-2.15 2.25-.72.78-1.35 1.6-1.88 2.44a10 10 0 0 0-1.17 2.57 5.14 5.14 0 0 0 0 2.58Zm37.12 2.67a5.31 5.31 0 0 1-2.01-1.36c-.5-.56-.9-1.2-1.17-1.92-.29-.72-.5-1.47-.66-2.25-.16-.8-.3-1.62-.42-2.43-.28-.2-.78 0-1.5.56-.72.53-1.55 1.2-2.49 2.01-.93.82-1.95 1.66-3.04 2.54-1.07.84-2.1 1.46-3.1 1.87-1 .4-1.92.48-2.76.23-.82-.25-1.46-1.06-1.92-2.43-.16-.47-.11-1.14.14-2.02.28-.9.68-1.89 1.21-2.95a44.88 44.88 0 0 1 1.83-3.28c.72-1.16 1.4-2.22 2.07-3.2.68-1 1.3-1.83 1.87-2.52a8.44 8.44 0 0 1 1.36-1.4c.72.34 1.03.87.94 1.59a6.31 6.31 0 0 1-.85 2.39c-.47.9-1.1 1.87-1.87 2.9a92.74 92.74 0 0 0-2.16 3.1 19.4 19.4 0 0 0-1.6 2.9c-.4.94-.5 1.77-.32 2.49.69.28 1.53.14 2.53-.43 1.03-.59 2.13-1.4 3.28-2.43 1.19-1.03 2.4-2.2 3.61-3.52a162.1 162.1 0 0 0 6.28-7.12c.82-.94 1.4-1.57 1.78-1.88.66.31.99.83.99 1.55a6.4 6.4 0 0 1-.56 2.39c-.35.9-.78 1.89-1.32 2.95-.5 1.03-.93 2.06-1.3 3.1-.38 1.03-.6 2.01-.66 2.95-.07.94.18 1.75.75 2.44l1.59 1.87h4.73c.22 0 .27.1.14.28a14.58 14.58 0 0 1-1.27 1.27c-.24.19-.38.28-.41.28a4.7 4.7 0 0 1-1.97.05c-.5-.1-1.08-.28-1.74-.57Zm.52 13.74a5.42 5.42 0 0 1-2.35-1.55 7.15 7.15 0 0 1-1.4-2.25 7.3 7.3 0 0 1-.61-2.39 7 7 0 0 1 .05-2.15c.09-.63.28-1.11.56-1.46.25-.31.55-.39.89-.23-.03 2.72.3 4.76.98 6.14.66 1.4 1.53 2.28 2.63 2.62a5.2 5.2 0 0 0 3.65-.23c1.35-.53 2.7-1.36 4.08-2.49 1.4-1.09 2.74-2.42 3.99-3.98a26.61 26.61 0 0 0 3.23-4.83c.88-1.65 1.5-3.3 1.88-4.92a8.73 8.73 0 0 0-.05-4.5c-2.81 2.03-5 3.31-6.56 3.84-1.57.54-2.66.57-3.28.1-.6-.5-.78-1.38-.57-2.63.22-1.25.7-2.62 1.41-4.12.72-1.5 1.63-3 2.72-4.5a23.1 23.1 0 0 1 3.37-3.85 8.37 8.37 0 0 1 3.33-1.97c1.1-.28 2 .05 2.72.99a8.06 8.06 0 0 1 1.36 3.94c.19 1.62.14 3.43-.14 5.43-.28 2-.78 4.1-1.5 6.29a43.2 43.2 0 0 1-2.58 6.37 36.18 36.18 0 0 1-3.56 5.81 22.38 22.38 0 0 1-4.27 4.46 12.7 12.7 0 0 1-4.83 2.39c-1.68.43-3.4.32-5.15-.33Zm9.56-23.25c-.03.1-.06.26-.1.51v1.6c.04.25.07.42.1.51 1 .25 2.03.02 3.1-.7a12.73 12.73 0 0 0 2.9-2.76c.9-1.13 1.66-2.32 2.25-3.57a11 11 0 0 0 1.13-3.14c.15-.84 0-1.31-.47-1.4-.47-.13-1.33.37-2.58 1.5a55.26 55.26 0 0 0-3.42 3.33c-.63.68-1.22 1.4-1.78 2.15-.53.72-.91 1.38-1.13 1.97Zm14.25 8.95a.53.53 0 0 1-.05-.23c0-.13.02-.22.05-.28l.61-1.27c.31-.62.63-1.26.94-1.92a108.15 108.15 0 0 1 2.1-3.99 58.37 58.37 0 0 0 2.25-3.75c.48-.78.93-1.54 1.37-2.3.47-.74.89-1.45 1.26-2.1.4-.66.74-1.2.99-1.64a203.5 203.5 0 0 0 2.15-3.66 788.89 788.89 0 0 1 5.16-8.44 37.83 37.83 0 0 1 2.39-3.32 7.4 7.4 0 0 1 1.83-1.74c.5-.28.84-.1 1.03.56v1.5a72.75 72.75 0 0 1-2.06 3.1c-.38.6-.75 1.17-1.13 1.73l-.84 1.31a1206.68 1206.68 0 0 1-3.47 5.4c-.78 1.21-1.58 2.5-2.4 3.84-.8 1.31-1.54 2.55-2.2 3.7a50.74 50.74 0 0 0-1.59 3c-.37.81-.51 1.33-.42 1.55a8.88 8.88 0 0 0 2.4-1.17c.87-.6 1.74-1.22 2.62-1.88.87-.65 1.75-1.28 2.62-1.87a15.1 15.1 0 0 1 2.44-1.46c.75.1 1.4.38 1.97.85.56.47.97 1.06 1.22 1.78-.04.28-.07.81-.1 1.6V257.6c.03.74.06 1.26.1 1.54.03.34.18.78.46 1.31.29.5.58 1.02.9 1.55l.89 1.31c.28.38.4.58.37.61a2.7 2.7 0 0 1-1.78.05 4.32 4.32 0 0 1-1.5-.99 7.4 7.4 0 0 1-1.03-1.54c-.25-.6-.4-1.17-.47-1.74l-.14-1.54-.19-2.44c-.03-.84-.08-1.64-.14-2.4l-.05-1.54-1.07-.56c-.2-.1-.52-.02-.99.23-.44.25-.95.6-1.55 1.03-.59.44-1.21.94-1.87 1.5l-1.88 1.6a113.7 113.7 0 0 0-2.2 2.01l-1.36 1.36c-.65.63-1.36 1.32-2.1 2.07-.73.71-1.41 1.4-2.07 2.06-.63.65-1.06 1.12-1.31 1.4-.44.1-.86.14-1.27.14-.37-.03-.67-.26-.89-.7Z"/></svg>