<svg xmlns="http://www.w3.org/2000/svg" fill="none" viewBox="0 0 180 180"> <style>.bg { fill: #F2F2F2; } .star { fill: #333333; stroke: #333333; } @media (prefers-color-scheme: dark) { .bg { fill: #333333; } .star { fill: #F2F2F2; stroke: #F2F2F2; } } </style><path class="bg" d="M0 0h180v180H0z"/><path class= "star" stroke-linecap="round" stroke-linejoin="round" stroke-width="1.5" d="M75.42 116.03 70 135l-5.42-18.97a30 30 0 0 0-20.6-20.6L25 90l18.97-5.42a30 30 0 0 0 20.6-20.6L70 45l5.42 18.97a30 30 0 0 0 20.6 20.6L115 90l-18.97 5.42a30 30 0 0 0-20.6 20.6h-.01Zm56.3-47.93L130 75l-1.73-6.9a22.5 22.5 0 0 0-16.36-16.37L105 50l6.9-1.73a22.5 22.5 0 0 0 16.37-16.37L130 25l1.73 6.9a22.5 22.5 0 0 0 16.37 16.37L155 50l-6.9 1.73a22.5 22.5 0 0 0-16.37 16.37Zm-9.1 79.01L120 155l-2.63-7.89a15 15 0 0 0-9.48-9.48L100 135l7.89-2.63a15 15 0 0 0 9.48-9.48L120 115l2.63 7.89a15 15 0 0 0 9.48 9.48L140 135l-7.89 2.63a15 15 0 0 0-9.48 9.48Z"/></svg>