<?xml version="1.0" standalone="no"?>
<!DOCTYPE svg PUBLIC "-//W3C//DTD SVG 20010904//EN"
 "http://www.w3.org/TR/2001/REC-SVG-20010904/DTD/svg10.dtd">
<svg version="1.0" xmlns="http://www.w3.org/2000/svg"
 width="700.000000pt" height="700.000000pt" viewBox="0 0 700.000000 700.000000"
 preserveAspectRatio="xMidYMid meet">
<metadata>
Created by potrace 1.14, written by Peter Selinger 2001-2017
</metadata>
<g transform="translate(0.000000,700.000000) scale(0.100000,-0.100000)"
fill="#000000" stroke="none">
<path d="M4777 6985 c-12 -8 -46 -95 -89 -221 -87 -259 -132 -332 -254 -410
-57 -37 -68 -41 -297 -116 -87 -29 -167 -60 -177 -71 -27 -25 -26 -71 3 -89
12 -8 101 -41 197 -73 229 -75 272 -97 351 -175 82 -81 109 -133 184 -365 58
-176 79 -215 114 -215 43 0 59 30 121 217 74 223 105 286 180 362 71 71 122
99 295 156 247 82 272 93 278 122 11 57 -3 66 -191 128 -224 74 -304 111 -370
173 -78 74 -114 144 -187 363 -67 199 -83 230 -125 229 -8 0 -23 -7 -33 -15z"/>
<path d="M1692 6542 c-18 -14 -46 -85 -118 -303 -52 -156 -110 -316 -130 -355
-65 -131 -175 -244 -308 -319 -33 -18 -196 -79 -361 -134 -324 -109 -334 -115
-335 -182 0 -64 15 -72 336 -180 200 -67 323 -114 373 -142 130 -74 255 -212
312 -345 12 -26 59 -162 106 -302 46 -140 89 -266 96 -280 17 -39 48 -60 88
-60 64 0 75 22 178 331 124 370 147 417 269 538 112 110 185 147 518 257 325
107 344 117 344 186 0 66 -18 75 -328 177 -297 97 -373 130 -469 204 -154 118
-204 208 -332 590 -71 212 -106 304 -122 318 -28 24 -86 24 -117 1z"/>
<path d="M3485 4374 c-5 -1 -21 -5 -35 -8 -29 -6 -72 -42 -87 -71 -6 -11 -81
-230 -166 -486 -159 -478 -199 -574 -290 -708 -66 -97 -232 -263 -322 -323
-159 -104 -193 -118 -762 -307 -216 -72 -409 -137 -428 -147 -95 -45 -108
-193 -23 -257 20 -15 214 -85 503 -181 488 -162 581 -201 722 -298 158 -108
331 -315 415 -493 18 -38 103 -281 189 -540 138 -416 160 -474 190 -506 60
-64 154 -64 217 0 30 31 46 66 109 256 41 121 75 227 78 235 9 35 158 476 166
490 4 8 19 41 33 73 14 32 39 79 56 103 16 25 30 47 30 50 0 3 20 31 44 63 68
88 187 203 274 265 73 51 245 146 265 146 5 0 23 6 40 14 18 7 226 78 462 156
237 78 438 146 447 151 31 16 66 73 73 117 7 52 -21 121 -62 147 -14 9 -237
88 -497 174 -464 155 -575 200 -692 277 -174 115 -335 296 -429 484 -30 60
-104 265 -205 566 -87 261 -167 484 -177 498 -30 40 -99 71 -138 60z"/>
</g>
</svg>
